<?xml version="1.0" encoding="utf-8"?>
<!-- Generator: Adobe Illustrator 16.0.0, SVG Export Plug-In . SVG Version: 6.00 Build 0)  -->
<!DOCTYPE svg PUBLIC "-//W3C//DTD SVG 1.1//EN" "http://www.w3.org/Graphics/SVG/1.1/DTD/svg11.dtd">
<svg version="1.1" id="Layer_1" xmlns="http://www.w3.org/2000/svg" xmlns:xlink="http://www.w3.org/1999/xlink" x="0px" y="0px"
	 width="512px" height="512px" viewBox="0 0 512 512" enable-background="new 0 0 512 512" xml:space="preserve">
<path fill="#DF3166" d="M384,128h-69c24,16,46.5,44.5,53.5,64h15c32.5,0,64,32,64,64s-32.5,64-64,64h-96c-31.5,0-64-32-64-64
	c0-11.5,3.5-22.5,9-32H164c-2.5,10.5-4,21-4,32c0,64,63.5,128,127.5,128H384c64,0,128-64,128-128S448,128,384,128z M143.5,320h-15
	c-32.5,0-64-32-64-64s32.5-64,64-64h96c31.5,0,64,32,64,64c0,11.5-3.5,22.5-9,32H348c2.5-10.5,4-21,4-32c0-64-63.5-128-127.5-128
	H128C64,128,0,192,0,256s64,128,128,128h69C173,368,150.5,339.5,143.5,320z"/>
</svg>
