<?xml version="1.0" encoding="utf-8"?>
<!-- Generator: Adobe Illustrator 16.0.0, SVG Export Plug-In . SVG Version: 6.00 Build 0)  -->
<!DOCTYPE svg PUBLIC "-//W3C//DTD SVG 1.1//EN" "http://www.w3.org/Graphics/SVG/1.1/DTD/svg11.dtd">
<svg version="1.1" id="Layer_1" xmlns="http://www.w3.org/2000/svg" xmlns:xlink="http://www.w3.org/1999/xlink" x="0px" y="0px"
	 width="612px" height="792px" viewBox="0 0 612 792" enable-background="new 0 0 612 792" xml:space="preserve">
<path fill="#A30000" d="M584.417,167.865H27.583C12.355,167.865,0,180.22,0,195.448v401.104c0,15.229,12.355,27.583,27.583,27.583
	h556.834c15.229,0,27.583-12.354,27.583-27.583V195.448C612,180.22,599.646,167.865,584.417,167.865L584.417,167.865z
	 M529.251,207.516v0.287c14.366,0,25.858,11.493,25.858,25.572c0,14.079-11.492,25.572-25.858,25.572
	c-14.079,0-25.572-11.493-25.572-25.572C503.679,219.008,515.172,207.516,529.251,207.516z M460.58,207.516l-0.287,0.287
	c14.366,0,25.859,11.493,25.859,25.572c0,14.079-11.493,25.572-25.859,25.572s-25.572-11.493-25.572-25.572
	C434.721,219.008,446.214,207.516,460.58,207.516z M391.623,207.516l-0.288,0.287c14.366,0,25.859,11.493,25.859,25.572
	c0,14.079-11.493,25.572-25.859,25.572c-14.079,0-25.571-11.493-25.571-25.572C365.764,219.008,377.256,207.516,391.623,207.516
	L391.623,207.516z M556.834,568.969H55.166V293.425h501.668V568.969z"/>
<path fill="#A30000" d="M420.93,341.408l-91.656,91.944l91.943,91.943l-22.985,23.273L306,456.913l-91.944,91.513l-22.986-22.412
	l91.656-92.23l-91.943-91.944l22.986-22.986L306,410.797l91.943-91.943l22.986,22.986V341.408z"/>
</svg>
