<?xml version="1.0" encoding="iso-8859-1"?>
<!-- Generator: Adobe Illustrator 16.0.0, SVG Export Plug-In . SVG Version: 6.00 Build 0)  -->
<!DOCTYPE svg PUBLIC "-//W3C//DTD SVG 1.1//EN" "http://www.w3.org/Graphics/SVG/1.1/DTD/svg11.dtd">
<svg version="1.1" id="Capa_1" xmlns="http://www.w3.org/2000/svg" xmlns:xlink="http://www.w3.org/1999/xlink" x="0px" y="0px"
	 width="612.002px" height="612.002px" viewBox="0 0 612.002 612.002" style="enable-background:new 0 0 612.002 612.002;"
	 xml:space="preserve">
<g>
	<path d="M500.893,0H199.938c-45.621,0-82.747,37.126-82.747,82.761v54.68H70.695c-23.383,0-42.332,18.952-42.332,42.332v193.996
		c0,23.383,18.951,42.332,42.332,42.332h46.496V529.27c0,45.621,37.126,82.732,82.747,82.732h300.955
		c45.62,0,82.746-37.111,82.746-82.732V82.761C583.639,37.126,546.513,0,500.893,0z M155.333,330.037
		c0-9.284,7.422-16.467,16.708-16.467c4.628,0,7.874,1.622,10.202,3.231c12.32,9.06,25.753,14.633,41.542,14.633
		c14.619,0,23.452-5.8,23.452-15.31v-0.479c0-9.046-5.573-13.674-32.738-20.645c-32.709-8.354-53.834-17.414-53.834-49.685v-0.451
		c0-25.131,17.285-42.883,42.912-47.609v-12.107c0-8.538,6.914-15.451,15.465-15.451c8.537,0,15.451,6.914,15.451,15.451v12.234
		c12.742,2.089,24.327,6.391,34.543,12.911c3.966,2.313,7.915,7.197,7.915,14.153c0,9.272-7.421,16.496-16.722,16.496
		c-3.499,0-6.265-0.932-9.045-2.554c-11.853-6.971-22.987-10.922-34.147-10.922c-13.688,0-20.883,6.265-20.883,14.153v0.479
		c0,10.667,6.956,14.153,35.051,21.336c32.948,8.592,51.532,20.433,51.532,48.739v0.479c0,28.632-19.431,46.043-48.258,49.627v11.5
		c0,8.537-6.914,15.465-15.451,15.465c-8.552,0-15.465-6.913-15.465-15.465v-12.771c-14.662-2.78-28.941-8.466-41.514-17.482
		C158.113,340.706,155.333,335.599,155.333,330.037z M350.414,585.923c-15.663,0-28.362-12.685-28.362-28.362
		c0-15.663,12.685-28.362,28.362-28.362c15.663,0,28.362,12.685,28.362,28.362C378.778,573.238,366.077,585.923,350.414,585.923z
		 M513.083,496.277H187.732v-80.179h101.696l43.362,46.933c8.171,8.861,19.515,13.617,31.1,13.617c5.18,0,10.4-0.945,15.408-2.907
		c16.229-6.351,26.91-22.014,26.91-39.425V179.771c0-23.382-18.952-42.332-42.332-42.332H187.732V82.761
		c0-6.73,5.476-12.205,12.191-12.205h300.955c6.73,0,12.191,5.475,12.191,12.205v413.519L513.083,496.277L513.083,496.277z"/>
</g>
<g>
</g>
<g>
</g>
<g>
</g>
<g>
</g>
<g>
</g>
<g>
</g>
<g>
</g>
<g>
</g>
<g>
</g>
<g>
</g>
<g>
</g>
<g>
</g>
<g>
</g>
<g>
</g>
<g>
</g>
</svg>
